<?xml version="1.0" encoding="utf-8"?>
<!-- Uploaded to: SVG Repo, www.svgrepo.com, Generator: SVG Repo Mixer Tools -->
<svg fill="#000000" width="800px" height="800px" viewBox="0 0 32 32" version="1.1" xmlns="http://www.w3.org/2000/svg">
<title>lightbulb-on</title>
<path d="M20 25.25h-8c-0.414 0-0.75 0.336-0.75 0.75v0 2c0 0 0 0 0 0 0 0.207 0.084 0.395 0.22 0.531v0l2 2c0.135 0.135 0.322 0.219 0.529 0.219 0.001 0 0.001 0 0.002 0h4c0 0 0.001 0 0.002 0 0.207 0 0.394-0.084 0.53-0.219l2-2c0.135-0.136 0.219-0.323 0.219-0.53 0-0.001 0-0.001 0-0.002v0-2c-0-0.414-0.336-0.75-0.75-0.75v0zM19.25 27.689l-1.561 1.561h-3.379l-1.561-1.561v-0.939h6.5zM24.951 6.622c-1.828-3.111-5.083-5.213-8.842-5.408l-0.027-0.001h-0.067c-3.759 0.165-7.009 2.202-8.857 5.197l-0.027 0.047c-1.12 1.611-1.789 3.609-1.789 5.763 0 0.006 0 0.011 0 0.017v-0.001c0.175 2.207 0.89 4.217 2.012 5.937l-0.030-0.049c0.319 0.549 0.657 1.090 0.996 1.631 0.686 1.012 1.341 2.175 1.9 3.392l0.063 0.153c0.117 0.273 0.383 0.461 0.692 0.461h0c0.001 0 0.003 0 0.004 0 0.103 0 0.201-0.022 0.29-0.060l-0.005 0.002c0.273-0.116 0.461-0.382 0.461-0.692 0-0.104-0.021-0.203-0.060-0.294l0.002 0.005c-0.658-1.454-1.35-2.688-2.135-3.855l0.059 0.093c-0.33-0.527-0.659-1.054-0.971-1.59-0.982-1.464-1.624-3.232-1.777-5.138l-0.002-0.038c0.015-1.841 0.591-3.544 1.566-4.95l-0.019 0.029c1.603-2.629 4.391-4.397 7.603-4.56l0.023-0.001h0.056c3.255 0.191 6.045 2.013 7.582 4.655l0.024 0.045c0.911 1.371 1.453 3.055 1.453 4.865 0 0.060-0.001 0.12-0.002 0.18l0-0.009c-0.223 1.924-0.883 3.659-1.878 5.152l0.027-0.043c-0.289 0.49-0.592 0.975-0.895 1.457-0.704 1.048-1.391 2.257-1.986 3.518l-0.073 0.171c-0.039 0.087-0.061 0.19-0.061 0.297 0 0.414 0.336 0.75 0.75 0.75 0.305 0 0.568-0.182 0.685-0.444l0.002-0.005c0.633-1.354 1.285-2.498 2.015-3.585l-0.060 0.095c0.309-0.494 0.619-0.99 0.916-1.492 1.090-1.643 1.825-3.612 2.050-5.733l0.005-0.057c0.003-0.090 0.005-0.196 0.005-0.303 0-2.087-0.627-4.027-1.702-5.643l0.023 0.037zM14.684 5.893c-0.122-0.262-0.383-0.44-0.685-0.44-0.111 0-0.217 0.024-0.312 0.067l0.005-0.002c-2.316 1.342-3.961 3.621-4.424 6.306l-0.008 0.054c-0.006 0.037-0.010 0.079-0.010 0.122 0 0.371 0.269 0.678 0.622 0.74l0.004 0.001c0.037 0.006 0.079 0.010 0.123 0.010 0.001 0 0.002 0 0.002 0h-0c0.37-0 0.677-0.268 0.738-0.621l0.001-0.004c0.397-2.232 1.714-4.097 3.536-5.22l0.033-0.019c0.262-0.12 0.442-0.381 0.442-0.683 0-0.112-0.025-0.218-0.068-0.313l0.002 0.005zM1.665 2.671l4 2c0.098 0.050 0.213 0.079 0.335 0.079 0.414 0 0.75-0.336 0.75-0.75 0-0.292-0.167-0.545-0.411-0.669l-0.004-0.002-4-2c-0.098-0.050-0.213-0.079-0.335-0.079-0.414 0-0.75 0.336-0.75 0.75 0 0.292 0.167 0.545 0.411 0.669l0.004 0.002zM26 4.75c0 0 0 0 0.001 0 0.122 0 0.238-0.029 0.34-0.081l-0.004 0.002 4-2c0.248-0.126 0.414-0.379 0.414-0.671 0-0.414-0.336-0.75-0.75-0.75-0.122 0-0.238 0.029-0.34 0.081l0.004-0.002-4 2c-0.247 0.126-0.413 0.379-0.413 0.67 0 0.414 0.335 0.75 0.749 0.75h0zM30.336 21.33l-4-2c-0.097-0.049-0.212-0.078-0.333-0.078-0.414 0-0.749 0.336-0.749 0.749 0 0.29 0.165 0.542 0.406 0.666l0.004 0.002 4 2c0.097 0.050 0.212 0.080 0.334 0.080 0.001 0 0.001 0 0.002 0h-0c0.414-0 0.75-0.336 0.75-0.75 0-0.291-0.166-0.544-0.409-0.668l-0.004-0.002zM5.772 19.32l-3.913 1.83c-0.258 0.122-0.433 0.381-0.433 0.68 0 0.414 0.336 0.75 0.75 0.75 0 0 0 0 0 0h-0c0.115-0 0.224-0.026 0.322-0.072l-0.005 0.002 3.913-1.83c0.26-0.122 0.436-0.381 0.436-0.681 0-0.414-0.336-0.75-0.75-0.75-0.117 0-0.227 0.027-0.325 0.074l0.005-0.002zM2 12.75h1c0.414 0 0.75-0.336 0.75-0.75s-0.336-0.75-0.75-0.75v0h-1c-0.414 0-0.75 0.336-0.75 0.75s0.336 0.75 0.75 0.75v0zM30 11.25h-1c-0.414 0-0.75 0.336-0.75 0.75s0.336 0.75 0.75 0.75v0h1c0.414 0 0.75-0.336 0.75-0.75s-0.336-0.75-0.75-0.75v0z"></path>
</svg>