<?xml version="1.0" ?><!-- Uploaded to: SVG Repo, www.svgrepo.com, Generator: SVG Repo Mixer Tools -->
<svg fill="#000000" width="800px" height="800px" viewBox="0 0 35 35" data-name="Layer 2" id="e19e917d-01fb-4ba5-a851-78a1e413db14" xmlns="http://www.w3.org/2000/svg"><path d="M16.13,34.75A10.277,10.277,0,0,1,5.865,24.485V17.731a10.265,10.265,0,1,1,20.53,0v6.754A10.277,10.277,0,0,1,16.13,34.75Zm0-24.785a7.774,7.774,0,0,0-7.765,7.766v6.754a7.765,7.765,0,0,0,15.53,0V17.731A7.774,7.774,0,0,0,16.13,9.965Z"/><path d="M16.13,20.107a1.25,1.25,0,0,1-1.25-1.25V16.051a1.25,1.25,0,0,1,2.5,0v2.806A1.25,1.25,0,0,1,16.13,20.107Z"/><path d="M17.453,7.325a1.686,1.686,0,0,1,.781-2.264A5.03,5.03,0,0,1,21.918,4.9a8.252,8.252,0,0,0,4.635.143A3.708,3.708,0,0,0,29.127,1.5,1.278,1.278,0,0,0,27.877.25a1.261,1.261,0,0,0-1.25,1.25c.067,1.272-1.589,1.4-2.542,1.291-1.589-.189-3.078-.8-4.707-.623a5.218,5.218,0,0,0-3.945,2.2,4.01,4.01,0,0,0-.139,4.219c.837,1.372,3,.117,2.159-1.261Z"/></svg>