<svg xmlns="http://www.w3.org/2000/svg" width="800" height="800" fill="#000" class="icon" version="1.1" viewBox="0 0 1024 1024"><path d="M40.622 184.1c-4.414 0-8.076-3.576-8.076-7.996 0-4.422 3.498-7.998 7.918-7.998h0.156a7.994 7.994 0 0 1 7.998 7.998 7.99 7.99 0 0 1-7.996 7.996zM72.612 184.1c-4.414 0-8.076-3.576-8.076-7.996 0-4.422 3.498-7.998 7.918-7.998h0.156a7.994 7.994 0 0 1 7.998 7.998 7.99 7.99 0 0 1-7.996 7.996zM104.602 184.1c-4.414 0-8.076-3.576-8.076-7.996 0-4.422 3.498-7.998 7.918-7.998h0.156a7.994 7.994 0 0 1 7.998 7.998 7.99 7.99 0 0 1-7.996 7.996z"/><path d="M1015.848 200.096H8.156a7.994 7.994 0 0 1-7.998-7.998v-15.994c0-13.23 10.762-23.994 23.992-23.994h975.702c13.23 0 23.992 10.764 23.992 23.994v15.994a7.994 7.994 0 0 1-7.996 7.998zM16.152 184.1h991.696v-7.996a8.008 8.008 0 0 0-7.996-7.998H24.15a8.004 8.004 0 0 0-7.998 7.998v7.996z"/><path d="M1015.848 871.89H8.156a7.994 7.994 0 0 1-7.998-7.998V192.098a7.994 7.994 0 0 1 7.998-7.998h1007.692a7.994 7.994 0 0 1 7.996 7.998v671.794a7.994 7.994 0 0 1-7.996 7.998zM16.152 855.894h991.696V200.096H16.152v655.798z"/><path d="M631.964 631.962H56.14a7.994 7.994 0 0 1-7.998-7.998v-383.88a7.994 7.994 0 0 1 7.998-7.998h575.826a7.992 7.992 0 0 1 7.996 7.998v383.88a7.996 7.996 0 0 1-7.998 7.998z m-567.826-15.994h559.828V248.08H64.138v367.888z"/><path d="M631.964 599.972H56.14a7.992 7.992 0 0 1-7.998-7.996 7.994 7.994 0 0 1 7.998-7.998h575.826a7.992 7.992 0 0 1 7.996 7.998 7.996 7.996 0 0 1-7.998 7.996z"/><path d="M88.13 631.962a7.994 7.994 0 0 1-7.998-7.998v-31.988a7.994 7.994 0 0 1 7.998-7.998 7.994 7.994 0 0 1 7.998 7.998v31.988a7.994 7.994 0 0 1-7.998 7.998zM599.972 631.962a7.992 7.992 0 0 1-7.996-7.998v-31.988a7.992 7.992 0 0 1 7.996-7.998c4.422 0 8 3.576 8 7.998v31.988a7.994 7.994 0 0 1-8 7.998zM344.052 631.962c-13.23 0-23.992-10.762-23.992-23.992s10.762-23.992 23.992-23.992 23.992 10.762 23.992 23.992-10.762 23.992-23.992 23.992z m0-31.99c-4.412 0-7.998 3.594-7.998 7.998s3.586 7.998 7.998 7.998 7.998-3.594 7.998-7.998-3.586-7.998-7.998-7.998zM344.052 504.002c-52.922 0-95.97-43.048-95.97-95.97 0-52.92 43.048-95.97 95.97-95.97s95.97 43.05 95.97 95.97c0 52.922-43.048 95.97-95.97 95.97z m0-175.946c-44.096 0-79.976 35.878-79.976 79.974s35.88 79.976 79.976 79.976 79.976-35.88 79.976-79.976-35.88-79.974-79.976-79.974z"/><path d="M312.062 464.014a8 8 0 0 1-7.998-7.996v-95.97c0-2.882 1.546-5.538 4.054-6.958a8.016 8.016 0 0 1 8.06 0.102l79.976 47.984a8 8 0 0 1 0 13.716l-79.976 47.986a8.054 8.054 0 0 1-4.116 1.136z m7.998-89.838v67.712l56.436-33.858-56.436-33.854z"/><path d="M807.91 344.05h-127.96a7.99 7.99 0 0 1-7.996-7.996v-95.97a7.99 7.99 0 0 1 7.996-7.998h127.96a7.99 7.99 0 0 1 7.996 7.998v95.97a7.99 7.99 0 0 1-7.996 7.996z m-119.964-15.994h111.964V248.08h-111.964v79.976zM951.868 264.076H839.9c-4.418 0-7.996-3.578-7.996-7.998s3.578-7.998 7.996-7.998h111.968c4.418 0 7.996 3.578 7.996 7.998s-3.578 7.998-7.996 7.998zM951.868 296.066H839.9c-4.418 0-7.996-3.578-7.996-7.998s3.578-7.998 7.996-7.998h111.968c4.418 0 7.996 3.578 7.996 7.998s-3.578 7.998-7.996 7.998zM903.878 328.056h-63.98c-4.418 0-7.996-3.578-7.996-7.998s3.578-7.998 7.996-7.998h63.98c4.422 0 8 3.578 8 7.998s-3.578 7.998-8 7.998z"/><path d="M807.91 488.008h-127.96a7.992 7.992 0 0 1-7.996-7.998V384.04a7.992 7.992 0 0 1 7.996-7.998h127.96a7.992 7.992 0 0 1 7.996 7.998v95.97a7.992 7.992 0 0 1-7.996 7.998z m-119.964-15.996h111.964v-79.974h-111.964v79.974zM951.868 408.032H839.9a7.992 7.992 0 0 1-7.996-7.996 7.992 7.992 0 0 1 7.996-7.998h111.968a7.992 7.992 0 0 1 7.996 7.998 7.992 7.992 0 0 1-7.996 7.996zM951.868 440.022H839.9a7.992 7.992 0 0 1-7.996-7.998 7.992 7.992 0 0 1 7.996-7.996h111.968a7.992 7.992 0 0 1 7.996 7.996 7.992 7.992 0 0 1-7.996 7.998zM903.878 472.012h-63.98a7.992 7.992 0 0 1-7.996-7.998 7.992 7.992 0 0 1 7.996-7.996h63.98c4.422 0 8 3.576 8 7.996a7.994 7.994 0 0 1-8 7.998z"/><path d="M807.91 631.962h-127.96a7.99 7.99 0 0 1-7.996-7.998v-95.968a7.99 7.99 0 0 1 7.996-7.998h127.96a7.99 7.99 0 0 1 7.996 7.998v95.968a7.99 7.99 0 0 1-7.996 7.998z m-119.964-15.994h111.964v-79.976h-111.964v79.976zM951.868 551.988H839.9c-4.418 0-7.996-3.578-7.996-7.998s3.578-7.998 7.996-7.998h111.968c4.418 0 7.996 3.578 7.996 7.998s-3.578 7.998-7.996 7.998zM951.868 583.978H839.9c-4.418 0-7.996-3.578-7.996-7.998s3.578-7.998 7.996-7.998h111.968c4.418 0 7.996 3.578 7.996 7.998s-3.578 7.998-7.996 7.998zM903.878 615.968h-63.98c-4.418 0-7.996-3.578-7.996-7.998s3.578-7.998 7.996-7.998h63.98c4.422 0 8 3.578 8 7.998s-3.578 7.998-8 7.998z"/><path d="M807.91 775.918h-127.96a7.99 7.99 0 0 1-7.996-7.996v-95.97a7.992 7.992 0 0 1 7.996-7.998h127.96a7.992 7.992 0 0 1 7.996 7.998v95.97a7.99 7.99 0 0 1-7.996 7.996z m-119.964-15.994h111.964v-79.974h-111.964v79.974zM951.868 695.944H839.9a7.992 7.992 0 0 1-7.996-7.998 7.992 7.992 0 0 1 7.996-7.996h111.968a7.992 7.992 0 0 1 7.996 7.996 7.992 7.992 0 0 1-7.996 7.998zM951.868 727.934H839.9a7.992 7.992 0 0 1-7.996-7.996 7.992 7.992 0 0 1 7.996-7.998h111.968a7.992 7.992 0 0 1 7.996 7.998 7.992 7.992 0 0 1-7.996 7.996zM903.878 759.924h-63.98a7.992 7.992 0 0 1-7.996-7.998 7.992 7.992 0 0 1 7.996-7.996h63.98c4.422 0 8 3.576 8 7.996a7.994 7.994 0 0 1-8 7.998z"/><path d="M951.868 839.898H839.9a7.992 7.992 0 0 1-7.996-7.996 7.992 7.992 0 0 1 7.996-7.998h111.968a7.992 7.992 0 0 1 7.996 7.998 7.992 7.992 0 0 1-7.996 7.996z"/><path d="M631.964 775.918H56.14a7.992 7.992 0 0 1-7.998-7.996v-95.97a7.994 7.994 0 0 1 7.998-7.998h575.826a7.994 7.994 0 0 1 7.996 7.998v95.97a7.996 7.996 0 0 1-7.998 7.996z m-567.826-15.994h559.828v-79.974H64.138v79.974z"/><path d="M599.972 711.94H152.11a7.994 7.994 0 0 1-7.998-7.998 7.994 7.994 0 0 1 7.998-7.998h447.862c4.422 0 8 3.576 8 7.998a7.994 7.994 0 0 1-8 7.998z"/><path d="M312.062 743.93H152.11c-4.42 0-7.998-3.578-7.998-7.998s3.578-7.998 7.998-7.998h159.952c4.42 0 7.998 3.578 7.998 7.998s-3.578 7.998-7.998 7.998z"/><path d="M120.128 743.93H88.13a7.994 7.994 0 0 1-7.998-7.998v-31.99a7.994 7.994 0 0 1 7.998-7.998h31.998a7.994 7.994 0 0 1 7.998 7.998v31.99a7.994 7.994 0 0 1-7.998 7.998z m-24-15.996h16.002v-15.994h-16.002v15.994z"/><path d="M56.14 839.898a7.992 7.992 0 0 1-7.998-7.996v-15.996a7.992 7.992 0 0 1 7.998-7.996 7.992 7.992 0 0 1 7.998 7.996v15.996a7.992 7.992 0 0 1-7.998 7.996z"/><path d="M631.964 823.904H56.14a7.994 7.994 0 0 1-7.998-7.998 7.992 7.992 0 0 1 7.998-7.996h575.826a7.992 7.992 0 0 1 7.996 7.996 7.996 7.996 0 0 1-7.998 7.998z"/><path d="M631.964 839.898c-4.422 0-8-3.576-8-7.996v-15.996a7.994 7.994 0 0 1 8-7.996 7.992 7.992 0 0 1 7.996 7.996v15.996a7.992 7.992 0 0 1-7.996 7.996z"/><path d="M679.95 839.898a7.99 7.99 0 0 1-7.996-7.996v-15.996c0-4.42 3.574-7.996 7.996-7.996s7.996 3.576 7.996 7.996v15.996a7.99 7.99 0 0 1-7.996 7.996z"/><path d="M807.91 823.904h-127.96a7.99 7.99 0 0 1-7.996-7.998 7.99 7.99 0 0 1 7.996-7.996h127.96a7.99 7.99 0 0 1 7.996 7.996 7.99 7.99 0 0 1-7.996 7.998z"/><path d="M807.91 839.898c-4.422 0-8-3.576-8-7.996v-15.996c0-4.42 3.578-7.996 8-7.996s7.996 3.576 7.996 7.996v15.996a7.99 7.99 0 0 1-7.996 7.996z"/></svg>